<svg xmlns="http://www.w3.org/2000/svg" viewBox="0 0 128 128" width="128" height="128">
  <rect width="128" height="128" rx="22" fill="#0F1117"/>
 
  <!-- Mic body -->
  <rect x="51" y="20" width="26" height="46" rx="13" fill="#E8A838"/>
  <!-- Mic grille lines -->
  <line x1="51" y1="38" x2="77" y2="38" stroke="#0F1117" stroke-width="1.4" stroke-opacity="0.25"/>
  <line x1="51" y1="44" x2="77" y2="44" stroke="#0F1117" stroke-width="1.4" stroke-opacity="0.25"/>
  <line x1="51" y1="50" x2="77" y2="50" stroke="#0F1117" stroke-width="1.4" stroke-opacity="0.25"/>
 
  <!-- Mic stand arc -->
  <path d="M43 57 Q43 84 64 84 Q85 84 85 57" fill="none" stroke="#E8A838" stroke-width="3.5" stroke-linecap="round"/>
  <!-- Stem -->
  <line x1="64" y1="84" x2="64" y2="98" stroke="#E8A838" stroke-width="3.5" stroke-linecap="round"/>
  <!-- Base -->
  <line x1="50" y1="98" x2="78" y2="98" stroke="#E8A838" stroke-width="3.5" stroke-linecap="round"/>
 
  <!-- Sound waves left -->
  <path d="M37 48 Q24 55 24 66 Q24 77 37 84" fill="none" stroke="#4EC9B0" stroke-width="2.5" stroke-linecap="round" opacity="0.85"/>
  <path d="M29 42 Q12 52 12 66 Q12 80 29 90" fill="none" stroke="#4EC9B0" stroke-width="2" stroke-linecap="round" opacity="0.45"/>
 
  <!-- Code lines right (transcription output) -->
  <line x1="91" y1="48" x2="113" y2="48" stroke="#4EC9B0" stroke-width="2.5" stroke-linecap="round" opacity="0.9"/>
  <line x1="91" y1="58" x2="118" y2="58" stroke="#4EC9B0" stroke-width="2.5" stroke-linecap="round" opacity="0.9"/>
  <line x1="91" y1="68" x2="107" y2="68" stroke="#4EC9B0" stroke-width="2.5" stroke-linecap="round" opacity="0.9"/>
  <line x1="91" y1="78" x2="115" y2="78" stroke="#4EC9B0" stroke-width="2.5" stroke-linecap="round" opacity="0.9"/>
</svg>