<svg xmlns="http://www.w3.org/2000/svg" width="13" height="13" viewBox="0 0 236.779 236.779">
  <path fill="#E53935" d="M77.001,94.197V41.389C77.001,18.53,95.532,0,118.389,0c22.858,0,41.389,18.53,41.389,41.389v52.808
    c0,22.857-18.531,41.389-41.389,41.389C95.532,135.585,77.001,117.054,77.001,94.197z M30.067,62.248v31.949
    c0,43.363,31.413,79.528,72.678,86.934v24.359H74.104v31.289h88.571V205.49h-28.641v-24.359
    c41.266-7.406,72.678-43.571,72.678-86.934V62.248h-31.289v31.949c0,31.448-25.584,57.033-57.034,57.033
    c-31.447,0-57.033-25.585-57.033-57.033V62.248H30.067z"/>
</svg>
